<?xml version="1.0" encoding="UTF-8" standalone="no"?>
<svg width="161px" height="29px" viewBox="0 0 161 29" version="1.1" xmlns="http://www.w3.org/2000/svg" xmlns:xlink="http://www.w3.org/1999/xlink" xmlns:sketch="http://www.bohemiancoding.com/sketch/ns">
    <!-- Generator: Sketch 3.2.1 (9977) - http://www.bohemiancoding.com/sketch -->
    <title>Imported Layers 2</title>
    <desc>Created with Sketch.</desc>
    <defs>
        <path id="path-1" d="M0,0.148865337 L161,0.148865337 L161,28.1490819 L0,28.1490819"></path>
        <path id="path-3" d="M0,0.148865337 L161,0.148865337 L161,28.1490819 L0,28.1490819 L0,0.148865337 Z"></path>
    </defs>
    <g id="Page-1" stroke="none" stroke-width="1" fill="none" fill-rule="evenodd" sketch:type="MSPage">
        <g id="Imported-Layers-2" sketch:type="MSLayerGroup">
            <path d="M14.0671712,6.72486979 C9.9470132,6.72486979 6.60791751,10.0497094 6.60791751,14.1497315 C6.60791751,18.2486708 9.9470132,21.5718865 14.0671712,21.5718865 C18.1862413,21.5718865 21.5258809,18.2486708 21.5258809,14.1497315 C21.5258809,10.0497094 18.1862413,6.72486979 14.0671712,6.72486979 L14.0671712,6.72486979 Z M14.0671712,3.60248702 L16.5294755,6.01897743 L19.91426,5.31200241 L20.6724779,8.67094574 L23.9049662,9.89597213 L22.719231,13.1282446 L24.772511,15.8993052 L22.0181242,17.9812546 L22.2405855,21.4154426 L18.7927068,21.6861068 L17.1141844,24.6953519 L14.0671712,23.0664945 L11.020158,24.6953519 L9.34163553,21.6861068 L5.8937568,21.4154426 L6.11621813,17.9812546 L3.36237525,15.8993052 L5.41511138,13.1282446 L4.22883224,9.89597213 L7.46077662,8.67094574 L8.2200823,5.31200241 L11.6043229,6.01897743 L14.0671712,3.60248702 Z" id="Fill-1" fill="#4DC394" sketch:type="MSShapeGroup"></path>
            <g id="Group-5">
                <mask id="mask-2" sketch:name="Clip 4" fill="white">
                    <use xlink:href="#path-1"></use>
                </mask>
                <g id="Clip-4"></g>
                <path d="M14.0666273,2.32284058 C7.51408031,2.32284058 2.18534267,7.62785986 2.18534267,14.1497856 C2.18534267,20.6706287 7.51408031,25.9751066 14.0666273,25.9751066 C20.6180864,25.9751066 25.9484558,20.6706287 25.9484558,14.1497856 C25.9484558,7.62785986 20.6180864,2.32284058 14.0666273,2.32284058 M14.0666273,28.1490819 C6.31039588,28.1490819 -0.000108783049,21.8685886 -0.000108783049,14.1497856 C-0.000108783049,6.42935856 6.31039588,0.148865337 14.0666273,0.148865337 C21.8223147,0.148865337 28.1339072,6.42935856 28.1339072,14.1497856 C28.1339072,21.8685886 21.8223147,28.1490819 14.0666273,28.1490819" id="Fill-3" fill="#4DC394" sketch:type="MSShapeGroup" mask="url(#mask-2)"></path>
            </g>
            <path d="M14.0671712,17.2950124 C12.3239228,17.2950124 10.9059358,15.883769 10.9059358,14.1493525 C10.9059358,12.4143947 12.3239228,11.0031513 14.0671712,11.0031513 C15.8098756,11.0031513 17.2273187,12.4143947 17.2273187,14.1493525 C17.2273187,15.883769 15.8098756,17.2950124 14.0671712,17.2950124 M14.0671712,9.52315919 C11.5036986,9.52315919 9.41995932,11.599154 9.41995932,14.1493525 C9.41995932,16.7000924 11.5036986,18.7750045 14.0671712,18.7750045 C16.6295559,18.7750045 18.714383,16.7000924 18.714383,14.1493525 C18.714383,11.599154 16.6295559,9.52315919 14.0671712,9.52315919" id="Fill-6" fill="#4DC394" sketch:type="MSShapeGroup"></path>
            <path d="M52.3603273,21.9809143 C52.8672563,22.4432088 53.4416308,22.7820805 54.0774677,22.9964466 C54.7149364,23.2124366 55.3404389,23.3196197 55.9566949,23.3196197 C56.5751265,23.3196197 57.1989973,23.2124366 57.8375538,22.9964466 C58.4728468,22.7820805 59.0526605,22.4448328 59.5710117,21.9976955 C60.7382538,20.9442702 61.3196992,19.4112279 61.3196992,17.4121018 C61.3196992,15.479559 60.7382538,13.9714179 59.5710117,12.9001288 C58.5995791,12.018846 57.3980703,11.5771219 55.9741002,11.5771219 C53.6407038,11.5771219 52.0182046,12.6213446 51.1136736,14.7060006 C50.7867805,15.4589886 50.6241498,16.3678791 50.6241498,17.427259 C50.6241498,18.4942175 50.7867805,19.4052733 51.1136736,20.1550133 C51.4351275,20.9117905 51.8517665,21.5148305 52.3603273,21.9809143 M55.9741002,8.90025249 C58.4804616,8.90025249 60.4880528,9.68572014 61.9995932,11.2539488 C63.5138533,12.8449133 64.2698955,14.9100815 64.2698955,17.4489121 C64.2698955,19.9828708 63.5138533,22.0507457 61.9995932,23.6406275 C60.4880528,25.2110214 58.4804616,25.9932411 55.9741002,25.9932411 C53.4454382,25.9932411 51.4351275,25.2110214 49.9458875,23.6406275 C48.4327153,22.0729401 47.6783049,20.004524 47.6783049,17.4489121 C47.6783049,14.8884283 48.4327153,12.8238014 49.9458875,11.2539488 C51.4351275,9.68572014 53.4454382,8.90025249 55.9741002,8.90025249" id="Fill-8" fill="#FFFFFF" sketch:type="MSShapeGroup"></path>
            <path d="M70.2978362,21.9809143 C70.8036773,22.4432088 71.3780518,22.7820805 72.0155205,22.9964466 C72.6508135,23.2124366 73.27686,23.3196197 73.8942038,23.3196197 C74.5110036,23.3196197 75.1370501,23.2124366 75.7734309,22.9964466 C76.4087239,22.7820805 76.9885376,22.4448328 77.5063449,21.9976955 C78.6730431,20.9442702 79.2561202,19.4112279 79.2561202,17.4121018 C79.2561202,15.479559 78.6730431,13.9714179 77.5063449,12.9001288 C76.5354562,12.018846 75.3344913,11.5771219 73.9110651,11.5771219 C71.5782126,11.5771219 69.9573452,12.6213446 69.0495507,14.7060006 C68.7232015,15.4589886 68.5627465,16.3678791 68.5627465,17.427259 C68.5627465,18.4942175 68.7232015,19.4052733 69.0495507,20.1550133 C69.3742681,20.9117905 69.7876437,21.5148305 70.2978362,21.9809143 M73.9110651,8.90025249 C76.4168827,8.90025249 78.4255617,9.68572014 79.937646,11.2539488 C81.4519061,12.8449133 82.2063165,14.9100815 82.2063165,17.4489121 C82.2063165,19.9828708 81.4519061,22.0507457 79.937646,23.6406275 C78.4255617,25.2110214 76.4168827,25.9932411 73.9110651,25.9932411 C71.3824032,25.9932411 69.3742681,25.2110214 67.8833964,23.6406275 C66.3702242,22.0729401 65.6147259,20.004524 65.6147259,17.4489121 C65.6147259,14.8884283 66.3702242,12.8238014 67.8833964,11.2539488 C69.3742681,9.68572014 71.3824032,8.90025249 73.9110651,8.90025249" id="Fill-10" fill="#FFFFFF" sketch:type="MSShapeGroup"></path>
            <path d="M132.903895,16.0907731 C133.01159,15.3274999 133.240035,14.5766772 133.550066,13.9644347 C134.355605,12.3848382 135.806227,11.3817565 137.733318,11.3817565 C138.94353,11.3817565 140.001989,11.7260414 140.844514,12.4790293 C141.738166,13.2807368 142.32777,14.5701813 142.566549,16.0907731 L132.903895,16.0907731 Z M137.857331,23.3830092 C134.44807,23.1859657 132.967533,20.4490088 132.967533,18.4249815 L143.956253,18.4249815 C143.956253,18.4249815 144.774301,18.2847775 145.040276,18.0049106 C145.312777,17.7272091 145.446037,17.3829242 145.446037,16.9742212 C145.446037,14.7190466 144.787355,12.8238556 143.468361,11.2967679 C142.061796,9.66303848 140.151022,8.84400846 137.733318,8.84400846 C135.182356,8.84400846 133.218278,9.73016321 131.836189,11.4927288 C130.603677,13.0587921 129.988509,15.0286865 129.988509,17.3964574 C129.988509,20.1274597 130.723883,22.2310622 132.194629,23.7159263 C133.525046,25.0627516 135.401554,25.869331 137.717545,25.9932953 C143.626096,25.9932953 145.136549,21.2674975 145.136549,21.2674975 C145.513482,19.9834663 144.568701,20.1615634 143.56409,20.1085132 C142.774869,20.0695375 142.484418,20.7732646 142.484418,20.7732646 C140.889115,23.5860074 137.857331,23.3830092 137.857331,23.3830092 L137.857331,23.3830092 Z" id="Fill-12" fill="#FFFFFF" sketch:type="MSShapeGroup"></path>
            <path d="M107.977782,11.0634012 C106.982961,9.73010908 105.527988,9.12761046 103.855449,9.06427503 C102.179102,9.01772078 100.860651,9.47514336 99.6150854,10.3537195 C98.6800951,11.0634012 98.1709904,11.7351898 97.8321312,12.2770597 C97.3056212,11.2907591 96.9188975,10.8972133 96.2281251,10.2524911 C95.0489169,9.23750014 94.0350589,9.16550345 92.9385258,9.06427503 C90.8607695,8.98848904 88.8575297,9.81455632 87.4319278,11.5619647 L87.4319278,10.710455 L87.4319278,10.5686269 C87.4319278,10.1020018 87.0484676,9.72090649 86.5790687,9.72090649 L85.3335028,9.72090649 C84.8651918,9.72090649 84.4817315,10.1020018 84.4817315,10.5686269 L84.4817315,10.710455 L84.4817315,12.2938408 L84.4817315,23.4197655 L84.4817315,24.5446461 L84.4817315,25.1455207 C84.4817315,25.6137699 84.8651918,25.9932411 85.3335028,25.9932411 L86.5790687,25.9932411 C87.0484676,25.9932411 87.4319278,25.6137699 87.4319278,25.1455207 L87.4319278,24.5446461 L87.4319278,23.4197655 L87.4319278,15.7123303 C87.4319278,14.9939874 87.7359764,14.3590091 87.8665161,14.1987758 C89.0098259,12.4979217 90.357104,11.7698349 92.096001,11.7698349 C93.3257934,11.7698349 94.1873552,12.1114131 94.675791,12.7853671 C95.1598756,13.4636517 95.4046375,14.4818906 95.4046375,15.8346705 L95.4046375,23.4197655 L95.4046375,24.5446461 L95.4046375,25.1455207 C95.4046375,25.6137699 95.7848342,25.9932411 96.2602161,25.9932411 L97.4992551,25.9932411 C97.9702857,25.9932411 98.3504824,25.6137699 98.3504824,25.1455207 L98.3504824,24.5446461 L98.3504824,23.4197655 L98.3504824,15.556969 C98.3504824,15.078976 98.4772147,14.7974851 98.5386771,14.6962567 C99.7195171,12.7469328 101.212021,11.7698349 103.021627,11.7698349 C104.250331,11.7698349 105.106998,12.1114131 105.59489,12.7853671 C106.083325,13.4636517 106.323736,14.4818906 106.323736,15.8346705 L106.323736,23.4197655 L106.323736,24.5446461 L106.323736,25.1455207 C106.323736,25.6137699 106.709916,25.9932411 107.178771,25.9932411 L108.421617,25.9932411 C108.895911,25.9932411 109.270669,25.6137699 109.270669,25.1455207 L109.270669,24.5446461 L109.270669,23.4197655 L109.270669,15.2543664 C109.270669,13.5989838 108.843151,12.201815 107.977782,11.0634012" id="Fill-14" fill="#FFFFFF" sketch:type="MSShapeGroup"></path>
            <g id="Group-18">
                <mask id="mask-4" sketch:name="Clip 17" fill="white">
                    <use xlink:href="#path-3"></use>
                </mask>
                <g id="Clip-17"></g>
                <path d="M158.050402,20.2977075 C158.046595,20.4032665 158.042787,20.7637913 157.827941,21.0539434 C157.340049,21.7262734 156.75262,22.3087428 155.988963,22.7418056 C155.111628,23.2354972 153.977021,23.747594 152.962619,23.747594 C150.669472,23.747594 149.225377,22.8121783 149.292823,20.834164 C149.326545,19.8348716 150.058655,19.2529435 150.920217,18.8658936 C151.782867,18.4815504 152.985463,18.2845068 154.519848,18.2845068 L157.606023,18.2845068 C157.606023,18.2845068 158.050402,18.2753042 158.050402,18.6948338 L158.050402,20.2977075 Z M153.763262,11.4588958 C153.763262,11.4588958 155.011004,11.3203157 156.326191,12.289835 C156.326191,12.289835 157.884508,13.2220027 158.018311,15.2297901 C158.031909,15.3656635 158.011784,15.9329758 157.510838,15.9329758 L154.129861,15.9329758 C151.687138,15.9329758 149.80791,16.4255847 148.493267,17.4118853 C147.281968,18.3196931 146.677134,19.56529 146.677134,21.1546305 C146.677134,22.6183827 147.293934,23.7687058 148.332268,24.673807 C149.327089,25.5312714 150.470943,25.9930246 151.959639,25.9930246 C155.492369,25.9930246 157.371596,24.3998948 158.050402,23.8298759 L158.050402,24.3847376 L158.050402,24.9834469 C158.050402,25.4538614 158.433318,25.8349567 158.899454,25.8349567 L160.147739,25.8349567 C160.620402,25.8349567 161.000054,25.4538614 161.000054,24.9834469 L161.000054,24.3847376 L161.000054,23.2593157 L161.000054,15.2546912 C161.000054,13.5132374 160.46049,12.1263538 159.381363,10.9630389 C158.607371,10.1115291 156.686807,8.96445405 154.259857,8.96445405 L154.259857,8.96661936 C154.259857,8.96661936 149.756238,8.4220429 147.572963,12.6249174 C147.572963,12.6249174 147.045909,13.5987673 148.207712,13.6556068 C149.257468,13.707033 150.049409,13.8293733 150.483453,13.0482362 C151.144854,12.2319129 152.255529,11.4588958 153.763262,11.4588958 L153.763262,11.4588958 Z" id="Fill-16" fill="#FFFFFF" sketch:type="MSShapeGroup" mask="url(#mask-4)"></path>
            </g>
            <path d="M125.263028,19.962571 C124.44226,22.1581994 122.801268,23.2560136 120.338419,23.2560136 C119.233184,23.2560136 115.218001,22.8050869 115.218001,17.3690662 C115.218001,12.8830769 118.492371,11.640728 120.338419,11.640728 C121.935898,11.640728 123.213011,12.1262997 124.159968,13.094195 C125.155333,14.1449136 125.653559,15.5978393 125.653559,17.4486415 C125.653559,18.393801 125.523019,19.2317775 125.263028,19.962571 M126.136556,11.1270073 C124.64786,9.64160187 122.855115,8.89998183 120.75669,8.89998183 C118.665336,8.89998183 116.814936,9.72063583 115.218001,11.3543652 L115.218001,4.54553539 L115.218001,4.53903945 L115.218001,2.68174138 C115.218001,2.21403355 114.837261,1.83293829 114.361879,1.83293829 L113.121208,1.83293829 C112.651265,1.83293829 112.267805,2.21403355 112.267805,2.68174138 L112.267805,3.31780236 L112.267805,4.53903945 L112.267805,23.2592616 L112.267805,24.3846835 L112.267805,24.9833928 C112.267805,25.4543486 112.651265,25.8354439 113.121208,25.8354439 L114.361879,25.8354439 C114.837261,25.8354439 115.218001,25.4543486 115.218001,24.9833928 L115.218001,23.8049207 C116.745315,25.301694 118.659353,25.9935118 120.741461,25.9935118 C122.829007,25.9935118 124.628279,25.2648836 126.136556,23.8011314 C127.77918,22.1868898 128.603211,20.0735433 128.603211,17.4486415 C128.603211,14.8697525 127.77918,12.756406 126.136556,11.1270073" id="Fill-19" fill="#FFFFFF" sketch:type="MSShapeGroup"></path>
            <path d="M46.5791066,23.669372 L39.7072814,16.0729092 L39.7257745,16.0539627 L45.6299745,10.8133615 C45.6642411,10.7797992 45.6947004,10.7429888 45.7197205,10.7018479 C45.8964929,10.4306423 45.8660337,10.0647042 45.6261671,9.83085031 L44.8989524,9.11250739 C44.6231873,8.84130182 44.1804403,8.84833909 43.9101145,9.12116865 L36.9289623,15.4449682 L36.9289623,15.4276456 L36.9289623,1.50413536 C36.9289623,1.02776629 36.5411507,0.639633753 36.0641371,0.639633753 L34.7951828,0.639633753 C34.3149056,0.639633753 33.9303576,1.02776629 33.9303576,1.50413536 L33.9303576,24.4781168 C33.9303576,24.9528619 34.3176252,25.3426184 34.7951828,25.3426184 L36.0641371,25.3426184 C36.5455021,25.3426184 36.9289623,24.9528619 36.9289623,24.4781168 L36.9289623,17.6184021 L44.2446223,25.7881318 C44.5736911,26.0566307 45.0583195,26.0696226 45.4015301,25.793545 L46.2152273,25.1379962 L46.4447595,24.9539445 C46.5366812,24.8797825 46.6101097,24.7910047 46.6645013,24.6957309 C46.845625,24.377971 46.8227806,23.9698093 46.5791066,23.669372" id="Fill-21" fill="#FFFFFF" sketch:type="MSShapeGroup"></path>
        </g>
    </g>
</svg>